# xmcd
#
# Track frame offsets: 
#        150
#        10615
#        23325
#        34505
#        47620
#        60617
#        72075
#        81115
#        92302
#        104902
#        114567
#        126532
#        137730
#        150350
#        162962
#        172850
#        182752
#        194795
#        206245
#        220227
#        232265
#        245927
#        256097
#        267460
#        279587
#        291390
#
# Disc length: 4069 seconds
#
# Revision: 1
# Processed by: cddbd v1.5.2PL0 Copyright (c) Steve Scherf et al.
# Submitted via: ExactAudioCopy v0.95b4
#
DISCID=7e0fe31a
DTITLE=Hank Snow - The Singing Ranger, Vol.3 [CD06 of 12)
DYEAR=1992
DGENRE=Country
TTITLE0=Promised To John (& Anita Carter)
TTITLE1=If Today Were Yesterday (& Anita Carter)
TTITLE2=For Sale (& Anita Carter)
TTITLE3=Rose Of Old Monterey (& Anita Carter)
TTITLE4=My Adobe Hacienda (& Anita Carter)
TTITLE5=I Never Will MArry (& Anita Carter)
TTITLE6=Mockin' Bird Hill (& Anita Carter)
TTITLE7=No Letter Today (& Anita Carter)
TTITLE8=I Dreamed Of An Old Love Affair (& Anita Carter)
TTITLE9=If It's Wrong To Love You (& Anita Carter)
TTITLE10=When My Blue Moon Turns To Gold Again (& Anita Carter)
TTITLE11=Let's Pretend (& Anita Carter)
TTITLE12=A Pair Of Broken Hearts (& Anita Carter)
TTITLE13=I've Been Everywhere
TTITLE14=Jamaica Farewell
TTITLE15=The Blue Canadian Rockies
TTITLE16=Geisha Girl
TTITLE17=When It's Springtime In Alaska
TTITLE18=Galway Bay
TTITLE19=My Filipino Rose
TTITLE20=Lili Marlene
TTITLE21=Melba From Melbourne
TTITLE22=The Atlantic Coastal Line
TTITLE23=Isle Of Sicily
TTITLE24=The Gypsy And Me
TTITLE25=I Ain't Been Anywhere
EXTD=
EXTT0=
EXTT1=
EXTT2=
EXTT3=
EXTT4=
EXTT5=
EXTT6=
EXTT7=
EXTT8=
EXTT9=
EXTT10=
EXTT11=
EXTT12=
EXTT13=
EXTT14=
EXTT15=
EXTT16=
EXTT17=
EXTT18=
EXTT19=
EXTT20=
EXTT21=
EXTT22=
EXTT23=
EXTT24=
EXTT25=
PLAYORDER=
